<?xml version="1.0" encoding="UTF-8" standalone="no"?>
<!-- Created with Inkscape (http://www.inkscape.org/) -->

<svg
   xmlns:dc="http://purl.org/dc/elements/1.1/"
   xmlns:cc="http://creativecommons.org/ns#"
   xmlns:rdf="http://www.w3.org/1999/02/22-rdf-syntax-ns#"
   xmlns:svg="http://www.w3.org/2000/svg"
   xmlns="http://www.w3.org/2000/svg"
   xmlns:sodipodi="http://sodipodi.sourceforge.net/DTD/sodipodi-0.dtd"
   xmlns:inkscape="http://www.inkscape.org/namespaces/inkscape"
   version="1.1"
   id="svg2"
   width="426"
   height="546"
   viewBox="0 0 426 546"
   sodipodi:docname="logo-humaninc-white.svg"
   inkscape:version="0.92.3 (2405546, 2018-03-11)">
  <metadata
     id="metadata8">
    <rdf:RDF>
      <cc:Work
         rdf:about="">
        <dc:format>image/svg+xml</dc:format>
        <dc:type
           rdf:resource="http://purl.org/dc/dcmitype/StillImage" />
        <dc:title></dc:title>
      </cc:Work>
    </rdf:RDF>
  </metadata>
  <defs
     id="defs6" />
  <sodipodi:namedview
     pagecolor="#ffffff"
     bordercolor="#666666"
     borderopacity="1"
     objecttolerance="10"
     gridtolerance="10"
     guidetolerance="10"
     inkscape:pageopacity="0"
     inkscape:pageshadow="2"
     inkscape:window-width="1920"
     inkscape:window-height="1073"
     id="namedview4"
     showgrid="false"
     inkscape:zoom="0.43223443"
     inkscape:cx="-263.59322"
     inkscape:cy="254.49152"
     inkscape:window-x="0"
     inkscape:window-y="27"
     inkscape:window-maximized="1"
     inkscape:current-layer="svg2" />
  <path
     style="fill:#ffffff"
     d="m 105.62712,473.97043 c -9.890702,-1.6959 -11.000002,-4.30989 -11.000002,-25.92077 V 431 h 5 5.000002 v 13.4349 c 0,7.3892 0.41553,14.52782 0.9234,15.86362 1.12771,2.96612 3.57952,4.03787 6.12311,2.67659 1.72106,-0.92108 1.92783,-2.46376 2.17756,-16.24642 l 0.27593,-15.22869 5.31373,-0.30447 5.31373,-0.30447 -0.31373,18.03775 -0.31373,18.03775 -3.16484,3.16233 c -3.46311,3.46036 -9.19055,4.89511 -15.33516,3.84154 z m 227.1228,-0.026 c -4.74716,-1.04565 -8.42007,-4.05321 -9.81636,-8.03812 -1.97471,-5.63572 -1.60223,-23.65838 0.58867,-28.4822 2.22597,-4.90106 6.82688,-7.42414 13.53814,-7.42414 8.53726,0 13.41455,3.4776 14.99979,10.69513 0.77271,3.51813 -0.28202,4.49899 -6.20563,5.77098 -3.01023,0.64639 -3.35879,0.45545 -4.34783,-2.38169 C 340.66321,441.66478 339.84908,441 337.72929,441 c -4.35888,0 -5.10217,1.62123 -5.10217,11.12857 0,8.88568 1.13178,11.87143 4.5,11.87143 1.78211,0 4.5,-2.76103 4.5,-4.57143 0,-1.70113 4.57938,-1.91919 8.55567,-0.40741 2.36249,0.89822 2.60937,1.40362 2.05055,4.19773 -1.66067,8.30338 -9.8966,12.83724 -19.48342,10.72557 z M 58.627118,452 v -21.10452 l 5.25,0.30226 5.25,0.30226 0.28974,8.80556 0.28975,8.80555 4.21025,-0.30555 4.21026,-0.30556 0.28893,-8.75 0.28894,-8.75 h 4.96106 4.96107 v 21 21 h -5 -5 l -0.0153,-5.25 c -0.0196,-6.7374 -0.85371,-7.97864 -5.08955,-7.57418 -3.38226,0.32295 -3.39704,0.34693 -3.89514,6.32418 l -0.5,6 -5.25,0.30226 -5.25,0.30226 z m 71.446252,19.72053 c -0.27004,-0.70371 -0.36842,-10.04121 -0.21861,-20.75 L 130.12712,431.5 h 8 8 l 2.45082,9.48784 2.45082,9.48783 2.41377,-9.73783 L 155.8563,431 h 7.88541 7.88541 v 21 21 h -5 -5 l -0.0944,-12.75 -0.0944,-12.75 -3.21092,12.5 -3.21092,12.5 h -3.94467 -3.94467 l -3.16555,-12 -3.16556,-12 -0.0844,12.25 -0.0845,12.25 h -5.03138 c -3.16444,0 -5.21357,-0.47476 -5.52237,-1.27947 z m 47.55375,-15.77019 c 0,-18.86432 0.69415,-21.70658 5.96727,-24.43341 4.61683,-2.38746 14.03567,-1.98853 18.13485,0.76808 4.7905,3.22153 5.97294,8.70456 5.65338,26.21499 l -0.2555,14 -5.25,0.30226 -5.25,0.30226 v -4.10976 -4.10976 l -4.25,0.3075 c -4.12537,0.29848 -4.2591,0.41747 -4.56037,4.0575 l -0.31036,3.75 h -4.93964 -4.93963 z m 18.82368,-5.83871 C 197.03949,443.94906 196.0069,442 192.15338,442 c -3.13347,0 -3.49327,0.30724 -4.091,3.49343 -0.36046,1.92138 -0.36569,4.64764 -0.0116,6.05835 0.56651,2.25717 1.08968,2.52793 4.36006,2.25658 3.4207,-0.28383 3.74205,-0.57788 4.03998,-3.69673 z m 16.17632,1.89291 v -21.09997 l 6.21626,0.29771 6.21626,0.29772 4.22132,10 4.22131,10 0.31243,-10 0.31242,-10 5.25,-0.30226 5.25,-0.30226 V 451.94774 473 h -6.31733 -6.31734 l -3.93266,-9.75 -3.93267,-9.75 -0.5,9.5 -0.5,9.5 -5.25,0.30226 -5.25,0.30226 z m 56,-0.005 v -21 h 5 5 v 21 21 h -5 -5 z m 16,0.0523 v -21.05226 h 5.87756 c 3.52257,0 6.2628,0.50084 6.83906,1.25 0.52883,0.6875 2.49643,5.075 4.37245,9.75 l 3.41093,8.5 0.25303,-7.5 c 0.4012,-11.89181 0.45769,-12 6.26602,-12 h 4.98095 v 21.04772 21.04771 l -6.22598,-0.29771 -6.22599,-0.29772 -4.22979,-10 -4.2298,-10 -0.29422,10 -0.29422,10 -5.25,0.30226 -5.25,0.30226 z m 71,15.94816 v -5.10452 l 5.25,0.30226 5.25,0.30226 v 4.5 4.5 l -5.25,0.30226 -5.25,0.30226 z m -151,-69.51881 c -80.025,-0.64178 -145.678892,-1.23759 -145.897532,-1.32403 -0.85563,-0.33827 1.04356,-18.05956 2.92475,-27.29072 6.76775,-33.20994 27.1523,-66.52496 53.907592,-88.10266 44.05813,-35.53214 98.35763,-44.06688 149.85694,-23.55435 49.96551,19.9016 87.84287,67.47468 95.66482,120.15275 0.84888,5.71697 1.54343,12.92424 1.54343,16.01616 V 400 l -6.25,-0.17598 c -3.4375,-0.0968 -71.725,-0.70106 -151.75,-1.34283 z M 188.43451,229.96357 c -8.74761,-2.15104 -18.66878,-6.40763 -24.99484,-10.72381 l -4.31255,-2.94239 -10.5,1.81425 c -22.30961,3.85479 -42.71895,3.46503 -55.598522,-1.06178 -18.1752,-6.38807 -21.35077,-20.68795 -8.80462,-39.648 5.54759,-8.38366 19.161462,-21.77155 31.339442,-30.81924 l 10.43629,-7.75369 2.24078,-8.86442 c 1.23413,-4.88214 4.38381,-13.04239 7.0111,-18.16445 3.97359,-7.74677 6.44928,-10.979 14.82292,-19.352646 8.29908,-8.299074 11.63443,-10.863832 19.12082,-14.703187 14.11184,-7.237181 22.29747,-9.189894 38.43179,-9.168054 17.86034,0.02418 30.04341,3.467928 44.0376,12.447976 l 4.59644,2.949527 7.48522,-1.432159 c 27.59146,-5.279119 53.55622,-3.686742 65.42158,4.0122 11.58581,7.517562 12.38284,19.888553 2.29573,35.633163 -5.17701,8.08061 -21.8653,24.45095 -33.45044,32.81314 l -9.00523,6.5 -1.71455,7.60272 c -5.57031,24.70019 -25.27209,47.7212 -48.95435,57.20186 -14.61026,5.84889 -34.93794,7.33931 -49.90461,3.65899 z m -49.60775,-27.55985 4.69965,-0.66176 -3.80889,-5.62098 C 137.62263,193.02944 134.9972,188.7 133.88324,186.5 c -2.65141,-5.23636 -7.25612,-19.91137 -7.25612,-23.12495 0,-3.64834 -1.68873,-2.86475 -10.99432,5.10153 -12.2128,10.45506 -22.005682,23.14905 -22.005682,28.52479 0,2.5444 4.5679,4.67837 12.826962,5.99232 5.81095,0.92447 23.96744,0.59358 32.37268,-0.58997 z m 158.02806,-68.09001 c 13.12324,-10.73653 24.7723,-25.50293 24.7723,-31.40147 0,-4.59381 -17.68391,-7.346014 -37,-5.758433 -6.875,0.565054 -12.58367,1.10778 -12.68594,1.206058 -0.10227,0.09828 1.77814,3.231315 4.17869,6.962295 5.53387,8.60083 10.08399,19.49917 11.70192,28.02813 0.69379,3.65734 1.44622,6.64971 1.67206,6.64971 0.22585,0 3.53828,-2.55883 7.36097,-5.68629 z"
     id="path821"
     inkscape:connector-curvature="0" />
</svg>
